<svg width="540" height="200" viewBox="0 0 540 200" fill="none" xmlns="http://www.w3.org/2000/svg">
<path d="M0 0H448L540 99L448 200H0V0Z" fill="#009131"/>
<path d="M538.324 100L448.5 198.708V1.29235L538.324 100Z" fill="#009131" fill-opacity="0.4" stroke="#009131"/>
<path d="M312.387 144L351.076 58.0235H366.798L405.61 144H388.906L355.621 66.4984H362.008L328.845 144H312.387ZM330.196 124.103L334.495 111.575H380.923L385.221 124.103H330.196Z" fill="white"/>
<path d="M61.82 116.81L29.55 104.28V96.72L61.82 84.19V91.47L32.28 102.53V98.47L61.82 109.53V116.81ZM104.955 125.7C101.501 125.7 98.1181 125.21 94.8048 124.23C91.5381 123.203 88.7848 121.803 86.5448 120.03L90.3948 112.96C92.1681 114.407 94.3148 115.573 96.8348 116.46C99.4014 117.347 102.061 117.79 104.815 117.79C108.035 117.79 110.555 117.113 112.375 115.76C114.241 114.407 115.175 112.587 115.175 110.3C115.175 108.76 114.778 107.407 113.985 106.24C113.238 105.073 111.885 104.187 109.925 103.58C108.011 102.973 105.375 102.67 102.015 102.67H90.1848L92.7048 76H121.475V83.63H96.0648L100.825 79.29L98.9348 99.24L94.1748 94.97H104.045C108.898 94.97 112.795 95.6233 115.735 96.93C118.721 98.19 120.891 99.9633 122.245 102.25C123.645 104.49 124.345 107.057 124.345 109.95C124.345 112.797 123.645 115.41 122.245 117.79C120.845 120.17 118.698 122.083 115.805 123.53C112.958 124.977 109.341 125.7 104.955 125.7ZM150.034 125.7C146.16 125.7 142.66 124.72 139.534 122.76C136.454 120.8 134.027 117.953 132.254 114.22C130.48 110.44 129.594 105.867 129.594 100.5C129.594 95.1333 130.48 90.5833 132.254 86.85C134.027 83.07 136.454 80.2 139.534 78.24C142.66 76.28 146.16 75.3 150.034 75.3C153.954 75.3 157.454 76.28 160.534 78.24C163.614 80.2 166.04 83.07 167.814 86.85C169.634 90.5833 170.544 95.1333 170.544 100.5C170.544 105.867 169.634 110.44 167.814 114.22C166.04 117.953 163.614 120.8 160.534 122.76C157.454 124.72 153.954 125.7 150.034 125.7ZM150.034 117.79C152.32 117.79 154.304 117.183 155.984 115.97C157.664 114.71 158.97 112.797 159.904 110.23C160.884 107.663 161.374 104.42 161.374 100.5C161.374 96.5333 160.884 93.29 159.904 90.77C158.97 88.2033 157.664 86.3133 155.984 85.1C154.304 83.84 152.32 83.21 150.034 83.21C147.84 83.21 145.88 83.84 144.154 85.1C142.474 86.3133 141.144 88.2033 140.164 90.77C139.23 93.29 138.764 96.5333 138.764 100.5C138.764 104.42 139.23 107.663 140.164 110.23C141.144 112.797 142.474 114.71 144.154 115.97C145.88 117.183 147.84 117.79 150.034 117.79Z" fill="white"/>
</svg>
