<svg width="719" height="200" viewBox="0 0 719 200" fill="none" xmlns="http://www.w3.org/2000/svg">
<path d="M0 0H628L719 99L628 200H0V0Z" fill="#54AD16"/>
<path d="M718.324 100L628.5 198.708V1.29235L718.324 100Z" fill="#54AD16" fill-opacity="0.4" stroke="#54AD16"/>
<path d="M503.827 144V58.0235H544.113C554.43 58.0235 562.291 60.0706 567.695 64.1647C573.099 68.1769 575.801 73.5812 575.801 80.3774C575.801 84.9628 574.737 88.8932 572.608 92.1685C570.479 95.3619 567.613 97.8593 564.01 99.6607C560.489 101.38 556.641 102.24 552.465 102.24L554.676 97.8184C559.507 97.8184 563.847 98.7191 567.695 100.52C571.544 102.24 574.573 104.778 576.784 108.136C579.077 111.493 580.223 115.669 580.223 120.664C580.223 128.033 577.398 133.765 571.748 137.859C566.098 141.953 557.705 144 546.569 144H503.827ZM519.794 131.472H545.587C551.564 131.472 556.15 130.489 559.343 128.524C562.537 126.559 564.133 123.407 564.133 119.067C564.133 114.809 562.537 111.697 559.343 109.732C556.15 107.685 551.564 106.662 545.587 106.662H518.566V94.2565H542.393C547.961 94.2565 552.219 93.2739 555.167 91.3087C558.197 89.3435 559.712 86.3958 559.712 82.4654C559.712 78.4532 558.197 75.4645 555.167 73.4993C552.219 71.5341 547.961 70.5515 542.393 70.5515H519.794V131.472Z" fill="black"/>
<path d="M44.32 125.7C40.8667 125.7 37.4833 125.21 34.17 124.23C30.9033 123.203 28.15 121.803 25.91 120.03L29.76 112.96C31.5333 114.407 33.68 115.573 36.2 116.46C38.7667 117.347 41.4267 117.79 44.18 117.79C47.4 117.79 49.92 117.113 51.74 115.76C53.6067 114.407 54.54 112.587 54.54 110.3C54.54 108.76 54.1433 107.407 53.35 106.24C52.6033 105.073 51.25 104.187 49.29 103.58C47.3767 102.973 44.74 102.67 41.38 102.67H29.55L32.07 76H60.84V83.63H35.43L40.19 79.29L38.3 99.24L33.54 94.97H43.41C48.2633 94.97 52.16 95.6233 55.1 96.93C58.0867 98.19 60.2567 99.9633 61.61 102.25C63.01 104.49 63.71 107.057 63.71 109.95C63.71 112.797 63.01 115.41 61.61 117.79C60.21 120.17 58.0633 122.083 55.17 123.53C52.3233 124.977 48.7067 125.7 44.32 125.7ZM76.7989 125V79.5L80.7889 83.63H66.4389V76H85.8989V125H76.7989ZM140.655 125V117.44L140.165 115.83V102.6C140.165 100.033 139.395 98.05 137.855 96.65C136.315 95.2033 133.981 94.48 130.855 94.48C128.755 94.48 126.678 94.8067 124.625 95.46C122.618 96.1133 120.915 97.0233 119.515 98.19L116.085 91.82C118.091 90.28 120.471 89.1367 123.225 88.39C126.025 87.5967 128.918 87.2 131.905 87.2C137.318 87.2 141.495 88.5067 144.435 91.12C147.421 93.6867 148.915 97.6767 148.915 103.09V125H140.655ZM128.895 125.49C126.095 125.49 123.645 125.023 121.545 124.09C119.445 123.11 117.811 121.78 116.645 120.1C115.525 118.373 114.965 116.437 114.965 114.29C114.965 112.19 115.455 110.3 116.435 108.62C117.461 106.94 119.118 105.61 121.405 104.63C123.691 103.65 126.725 103.16 130.505 103.16H141.355V108.97H131.135C128.148 108.97 126.141 109.46 125.115 110.44C124.088 111.373 123.575 112.54 123.575 113.94C123.575 115.527 124.205 116.787 125.465 117.72C126.725 118.653 128.475 119.12 130.715 119.12C132.861 119.12 134.775 118.63 136.455 117.65C138.181 116.67 139.418 115.223 140.165 113.31L141.635 118.56C140.795 120.753 139.278 122.457 137.085 123.67C134.938 124.883 132.208 125.49 128.895 125.49ZM130.995 82.51L118.815 72.92H129.105L138.555 82.51H130.995ZM193.35 75.3C197.83 75.3 201.633 76.2567 204.76 78.17C207.933 80.0367 210.36 82.7667 212.04 86.36C213.72 89.9533 214.56 94.3867 214.56 99.66C214.56 105.26 213.533 109.997 211.48 113.87C209.473 117.743 206.673 120.683 203.08 122.69C199.487 124.697 195.31 125.7 190.55 125.7C188.077 125.7 185.72 125.443 183.48 124.93C181.24 124.417 179.303 123.623 177.67 122.55L181.03 115.69C182.383 116.577 183.853 117.207 185.44 117.58C187.027 117.907 188.66 118.07 190.34 118.07C194.96 118.07 198.623 116.647 201.33 113.8C204.037 110.953 205.39 106.753 205.39 101.2C205.39 100.313 205.367 99.2867 205.32 98.12C205.273 96.9067 205.11 95.6933 204.83 94.48L207.63 97.56C206.837 99.4733 205.693 101.083 204.2 102.39C202.707 103.65 200.957 104.607 198.95 105.26C196.943 105.913 194.727 106.24 192.3 106.24C189.127 106.24 186.257 105.633 183.69 104.42C181.17 103.16 179.163 101.41 177.67 99.17C176.177 96.8833 175.43 94.2233 175.43 91.19C175.43 87.9233 176.223 85.1233 177.81 82.79C179.397 80.41 181.543 78.5667 184.25 77.26C187.003 75.9533 190.037 75.3 193.35 75.3ZM193.84 82.44C191.973 82.44 190.317 82.79 188.87 83.49C187.423 84.1433 186.28 85.1 185.44 86.36C184.647 87.5733 184.25 89.0433 184.25 90.77C184.25 93.3367 185.137 95.3667 186.91 96.86C188.683 98.3533 191.063 99.1 194.05 99.1C196.01 99.1 197.737 98.75 199.23 98.05C200.723 97.3033 201.89 96.3 202.73 95.04C203.57 93.7333 203.99 92.2867 203.99 90.7C203.99 89.16 203.593 87.7833 202.8 86.57C202.007 85.31 200.863 84.3067 199.37 83.56C197.877 82.8133 196.033 82.44 193.84 82.44ZM241.157 125.7C237.283 125.7 233.783 124.72 230.657 122.76C227.577 120.8 225.15 117.953 223.377 114.22C221.603 110.44 220.717 105.867 220.717 100.5C220.717 95.1333 221.603 90.5833 223.377 86.85C225.15 83.07 227.577 80.2 230.657 78.24C233.783 76.28 237.283 75.3 241.157 75.3C245.077 75.3 248.577 76.28 251.657 78.24C254.737 80.2 257.163 83.07 258.937 86.85C260.757 90.5833 261.667 95.1333 261.667 100.5C261.667 105.867 260.757 110.44 258.937 114.22C257.163 117.953 254.737 120.8 251.657 122.76C248.577 124.72 245.077 125.7 241.157 125.7ZM241.157 117.79C243.443 117.79 245.427 117.183 247.107 115.97C248.787 114.71 250.093 112.797 251.027 110.23C252.007 107.663 252.497 104.42 252.497 100.5C252.497 96.5333 252.007 93.29 251.027 90.77C250.093 88.2033 248.787 86.3133 247.107 85.1C245.427 83.84 243.443 83.21 241.157 83.21C238.963 83.21 237.003 83.84 235.277 85.1C233.597 86.3133 232.267 88.2033 231.287 90.77C230.353 93.29 229.887 96.5333 229.887 100.5C229.887 104.42 230.353 107.663 231.287 110.23C232.267 112.797 233.597 114.71 235.277 115.97C237.003 117.183 238.963 117.79 241.157 117.79Z" fill="black"/>
</svg>
