<svg width="901" height="200" viewBox="0 0 901 200" fill="none" xmlns="http://www.w3.org/2000/svg">
<path d="M0 0H808L901 99L808 200H0V0Z" fill="#C9D500"/>
<path d="M898.324 100L808.5 198.708V1.29235L898.324 100Z" fill="#C9D500" fill-opacity="0.4" stroke="#C9D500"/>
<path d="M725.721 145.228C719.17 145.228 713.07 144.164 707.42 142.035C701.852 139.824 696.98 136.753 692.804 132.823C688.71 128.811 685.517 124.103 683.224 118.698C680.931 113.294 679.785 107.399 679.785 101.012C679.785 94.6249 680.931 88.7294 683.224 83.3252C685.517 77.9209 688.751 73.2536 692.927 69.3233C697.103 65.3111 701.975 62.2405 707.543 60.1115C713.111 57.9007 719.211 56.7953 725.844 56.7953C732.885 56.7953 739.313 58.0235 745.127 60.48C750.941 62.8546 755.853 66.4165 759.866 71.1656L749.549 80.8687C746.437 77.5115 742.957 75.0141 739.109 73.3765C735.26 71.6569 731.084 70.7972 726.581 70.7972C722.077 70.7972 717.942 71.5341 714.175 73.008C710.491 74.4819 707.256 76.5699 704.472 79.272C701.77 81.9741 699.641 85.1675 698.085 88.8522C696.612 92.5369 695.875 96.5901 695.875 101.012C695.875 105.433 696.612 109.487 698.085 113.171C699.641 116.856 701.77 120.049 704.472 122.752C707.256 125.454 710.491 127.542 714.175 129.016C717.942 130.489 722.077 131.226 726.581 131.226C731.084 131.226 735.26 130.408 739.109 128.77C742.957 127.05 746.437 124.471 749.549 121.032L759.866 130.858C755.853 135.525 750.941 139.087 745.127 141.544C739.313 144 732.845 145.228 725.721 145.228Z" fill="black"/>
<path d="M44.6 75.3C49.08 75.3 52.8833 76.2567 56.01 78.17C59.1833 80.0367 61.61 82.7667 63.29 86.36C64.97 89.9533 65.81 94.3867 65.81 99.66C65.81 105.26 64.7833 109.997 62.73 113.87C60.7233 117.743 57.9233 120.683 54.33 122.69C50.7367 124.697 46.56 125.7 41.8 125.7C39.3267 125.7 36.97 125.443 34.73 124.93C32.49 124.417 30.5533 123.623 28.92 122.55L32.28 115.69C33.6333 116.577 35.1033 117.207 36.69 117.58C38.2767 117.907 39.91 118.07 41.59 118.07C46.21 118.07 49.8733 116.647 52.58 113.8C55.2867 110.953 56.64 106.753 56.64 101.2C56.64 100.313 56.6167 99.2867 56.57 98.12C56.5233 96.9067 56.36 95.6933 56.08 94.48L58.88 97.56C58.0867 99.4733 56.9433 101.083 55.45 102.39C53.9567 103.65 52.2067 104.607 50.2 105.26C48.1933 105.913 45.9767 106.24 43.55 106.24C40.3767 106.24 37.5067 105.633 34.94 104.42C32.42 103.16 30.4133 101.41 28.92 99.17C27.4267 96.8833 26.68 94.2233 26.68 91.19C26.68 87.9233 27.4733 85.1233 29.06 82.79C30.6467 80.41 32.7933 78.5667 35.5 77.26C38.2533 75.9533 41.2867 75.3 44.6 75.3ZM45.09 82.44C43.2233 82.44 41.5667 82.79 40.12 83.49C38.6733 84.1433 37.53 85.1 36.69 86.36C35.8967 87.5733 35.5 89.0433 35.5 90.77C35.5 93.3367 36.3867 95.3667 38.16 96.86C39.9333 98.3533 42.3133 99.1 45.3 99.1C47.26 99.1 48.9867 98.75 50.48 98.05C51.9733 97.3033 53.14 96.3 53.98 95.04C54.82 93.7333 55.24 92.2867 55.24 90.7C55.24 89.16 54.8433 87.7833 54.05 86.57C53.2567 85.31 52.1133 84.3067 50.62 83.56C49.1267 82.8133 47.2833 82.44 45.09 82.44ZM79.7384 125V79.5L83.7284 83.63H69.3784V76H88.8384V125H79.7384ZM143.594 125V117.44L143.104 115.83V102.6C143.104 100.033 142.334 98.05 140.794 96.65C139.254 95.2033 136.921 94.48 133.794 94.48C131.694 94.48 129.618 94.8067 127.564 95.46C125.558 96.1133 123.854 97.0233 122.454 98.19L119.024 91.82C121.031 90.28 123.411 89.1367 126.164 88.39C128.964 87.5967 131.858 87.2 134.844 87.2C140.258 87.2 144.434 88.5067 147.374 91.12C150.361 93.6867 151.854 97.6767 151.854 103.09V125H143.594ZM131.834 125.49C129.034 125.49 126.584 125.023 124.484 124.09C122.384 123.11 120.751 121.78 119.584 120.1C118.464 118.373 117.904 116.437 117.904 114.29C117.904 112.19 118.394 110.3 119.374 108.62C120.401 106.94 122.058 105.61 124.344 104.63C126.631 103.65 129.664 103.16 133.444 103.16H144.294V108.97H134.074C131.088 108.97 129.081 109.46 128.054 110.44C127.028 111.373 126.514 112.54 126.514 113.94C126.514 115.527 127.144 116.787 128.404 117.72C129.664 118.653 131.414 119.12 133.654 119.12C135.801 119.12 137.714 118.63 139.394 117.65C141.121 116.67 142.358 115.223 143.104 113.31L144.574 118.56C143.734 120.753 142.218 122.457 140.024 123.67C137.878 124.883 135.148 125.49 131.834 125.49ZM133.934 82.51L121.754 72.92H132.044L141.494 82.51H133.934ZM187.609 125V79.5L191.599 83.63H177.249V76H196.709V125H187.609ZM222.67 125.7C219.216 125.7 215.833 125.21 212.52 124.23C209.253 123.203 206.5 121.803 204.26 120.03L208.11 112.96C209.883 114.407 212.03 115.573 214.55 116.46C217.116 117.347 219.776 117.79 222.53 117.79C225.75 117.79 228.27 117.113 230.09 115.76C231.956 114.407 232.89 112.587 232.89 110.3C232.89 108.76 232.493 107.407 231.7 106.24C230.953 105.073 229.6 104.187 227.64 103.58C225.726 102.973 223.09 102.67 219.73 102.67H207.9L210.42 76H239.19V83.63H213.78L218.54 79.29L216.65 99.24L211.89 94.97H221.76C226.613 94.97 230.51 95.6233 233.45 96.93C236.436 98.19 238.606 99.9633 239.96 102.25C241.36 104.49 242.06 107.057 242.06 109.95C242.06 112.797 241.36 115.41 239.96 117.79C238.56 120.17 236.413 122.083 233.52 123.53C230.673 124.977 227.056 125.7 222.67 125.7ZM267.749 125.7C263.875 125.7 260.375 124.72 257.249 122.76C254.169 120.8 251.742 117.953 249.969 114.22C248.195 110.44 247.309 105.867 247.309 100.5C247.309 95.1333 248.195 90.5833 249.969 86.85C251.742 83.07 254.169 80.2 257.249 78.24C260.375 76.28 263.875 75.3 267.749 75.3C271.669 75.3 275.169 76.28 278.249 78.24C281.329 80.2 283.755 83.07 285.529 86.85C287.349 90.5833 288.259 95.1333 288.259 100.5C288.259 105.867 287.349 110.44 285.529 114.22C283.755 117.953 281.329 120.8 278.249 122.76C275.169 124.72 271.669 125.7 267.749 125.7ZM267.749 117.79C270.035 117.79 272.019 117.183 273.699 115.97C275.379 114.71 276.685 112.797 277.619 110.23C278.599 107.663 279.089 104.42 279.089 100.5C279.089 96.5333 278.599 93.29 277.619 90.77C276.685 88.2033 275.379 86.3133 273.699 85.1C272.019 83.84 270.035 83.21 267.749 83.21C265.555 83.21 263.595 83.84 261.869 85.1C260.189 86.3133 258.859 88.2033 257.879 90.77C256.945 93.29 256.479 96.5333 256.479 100.5C256.479 104.42 256.945 107.663 257.879 110.23C258.859 112.797 260.189 114.71 261.869 115.97C263.595 117.183 265.555 117.79 267.749 117.79Z" fill="black"/>
</svg>
