<svg width="1081" height="200" viewBox="0 0 1081 200" fill="none" xmlns="http://www.w3.org/2000/svg">
<path d="M0 0H988L1081 100L988 200H0V0Z" fill="#FFEF01"/>
<path d="M1078.32 100L988.5 198.708V1.29235L1078.32 100Z" fill="#FFEF01" fill-opacity="0.4" stroke="#FFEF01"/>
<path d="M859.809 147V61.0235H897.393C906.727 61.0235 914.916 62.8249 921.957 66.4278C928.999 70.0306 934.485 75.0254 938.416 81.4122C942.346 87.7991 944.311 95.3322 944.311 104.012C944.311 112.609 942.346 120.143 938.416 126.611C934.485 132.998 928.999 137.993 921.957 141.596C914.916 145.199 906.727 147 897.393 147H859.809ZM875.776 133.489H896.656C903.125 133.489 908.693 132.261 913.36 129.805C918.109 127.348 921.753 123.909 924.291 119.488C926.911 115.066 928.221 109.907 928.221 104.012C928.221 98.0344 926.911 92.8758 924.291 88.536C921.753 84.1144 918.109 80.6753 913.36 78.2188C908.693 75.7624 903.125 74.5341 896.656 74.5341H875.776V133.489Z" fill="black"/>
<path d="M35.92 125V79.5L39.91 83.63H25.56V76H45.02V125H35.92ZM70.9802 125.7C67.5268 125.7 64.1435 125.21 60.8302 124.23C57.5635 123.203 54.8102 121.803 52.5702 120.03L56.4202 112.96C58.1935 114.407 60.3402 115.573 62.8602 116.46C65.4268 117.347 68.0868 117.79 70.8402 117.79C74.0602 117.79 76.5802 117.113 78.4002 115.76C80.2668 114.407 81.2002 112.587 81.2002 110.3C81.2002 108.76 80.8035 107.407 80.0102 106.24C79.2635 105.073 77.9102 104.187 75.9502 103.58C74.0368 102.973 71.4002 102.67 68.0402 102.67H56.2102L58.7302 76H87.5002V83.63H62.0902L66.8502 79.29L64.9602 99.24L60.2002 94.97H70.0702C74.9235 94.97 78.8202 95.6233 81.7602 96.93C84.7468 98.19 86.9168 99.9633 88.2702 102.25C89.6702 104.49 90.3702 107.057 90.3702 109.95C90.3702 112.797 89.6702 115.41 88.2702 117.79C86.8702 120.17 84.7235 122.083 81.8302 123.53C78.9835 124.977 75.3668 125.7 70.9802 125.7ZM103.459 125V79.5L107.449 83.63H93.0991V76H112.559V125H103.459ZM167.315 125V117.44L166.825 115.83V102.6C166.825 100.033 166.055 98.05 164.515 96.65C162.975 95.2033 160.642 94.48 157.515 94.48C155.415 94.48 153.338 94.8067 151.285 95.46C149.278 96.1133 147.575 97.0233 146.175 98.19L142.745 91.82C144.752 90.28 147.132 89.1367 149.885 88.39C152.685 87.5967 155.578 87.2 158.565 87.2C163.978 87.2 168.155 88.5067 171.095 91.12C174.082 93.6867 175.575 97.6767 175.575 103.09V125H167.315ZM155.555 125.49C152.755 125.49 150.305 125.023 148.205 124.09C146.105 123.11 144.472 121.78 143.305 120.1C142.185 118.373 141.625 116.437 141.625 114.29C141.625 112.19 142.115 110.3 143.095 108.62C144.122 106.94 145.778 105.61 148.065 104.63C150.352 103.65 153.385 103.16 157.165 103.16H168.015V108.97H157.795C154.808 108.97 152.802 109.46 151.775 110.44C150.748 111.373 150.235 112.54 150.235 113.94C150.235 115.527 150.865 116.787 152.125 117.72C153.385 118.653 155.135 119.12 157.375 119.12C159.522 119.12 161.435 118.63 163.115 117.65C164.842 116.67 166.078 115.223 166.825 113.31L168.295 118.56C167.455 120.753 165.938 122.457 163.745 123.67C161.598 124.883 158.868 125.49 155.555 125.49ZM157.655 82.51L145.475 72.92H155.765L165.215 82.51H157.655ZM202.86 125V118.91L222.32 100.43C223.953 98.89 225.167 97.5367 225.96 96.37C226.753 95.2033 227.267 94.13 227.5 93.15C227.78 92.1233 227.92 91.1667 227.92 90.28C227.92 88.04 227.15 86.3133 225.61 85.1C224.07 83.84 221.807 83.21 218.82 83.21C216.44 83.21 214.27 83.63 212.31 84.47C210.397 85.31 208.74 86.5933 207.34 88.32L200.97 83.42C202.883 80.8533 205.45 78.87 208.67 77.47C211.937 76.0233 215.577 75.3 219.59 75.3C223.137 75.3 226.217 75.8833 228.83 77.05C231.49 78.17 233.52 79.78 234.92 81.88C236.367 83.98 237.09 86.4767 237.09 89.37C237.09 90.9567 236.88 92.5433 236.46 94.13C236.04 95.67 235.247 97.3033 234.08 99.03C232.913 100.757 231.21 102.693 228.97 104.84L212.24 120.73L210.35 117.3H238.98V125H202.86ZM259.632 125.7C256.179 125.7 252.796 125.21 249.482 124.23C246.216 123.203 243.462 121.803 241.222 120.03L245.142 112.96C246.916 114.407 249.062 115.573 251.582 116.46C254.102 117.347 256.739 117.79 259.492 117.79C262.759 117.79 265.302 117.137 267.122 115.83C268.942 114.477 269.852 112.657 269.852 110.37C269.852 108.13 269.012 106.357 267.332 105.05C265.652 103.743 262.946 103.09 259.212 103.09H254.732V96.86L268.732 80.2L269.922 83.63H243.602V76H276.992V82.09L262.992 98.75L258.232 95.95H260.962C266.982 95.95 271.486 97.3033 274.472 100.01C277.506 102.67 279.022 106.1 279.022 110.3C279.022 113.053 278.322 115.597 276.922 117.93C275.522 120.263 273.376 122.153 270.482 123.6C267.636 125 264.019 125.7 259.632 125.7ZM305.415 125.7C301.541 125.7 298.041 124.72 294.915 122.76C291.835 120.8 289.408 117.953 287.635 114.22C285.861 110.44 284.975 105.867 284.975 100.5C284.975 95.1333 285.861 90.5833 287.635 86.85C289.408 83.07 291.835 80.2 294.915 78.24C298.041 76.28 301.541 75.3 305.415 75.3C309.335 75.3 312.835 76.28 315.915 78.24C318.995 80.2 321.421 83.07 323.195 86.85C325.015 90.5833 325.925 95.1333 325.925 100.5C325.925 105.867 325.015 110.44 323.195 114.22C321.421 117.953 318.995 120.8 315.915 122.76C312.835 124.72 309.335 125.7 305.415 125.7ZM305.415 117.79C307.701 117.79 309.685 117.183 311.365 115.97C313.045 114.71 314.351 112.797 315.285 110.23C316.265 107.663 316.755 104.42 316.755 100.5C316.755 96.5333 316.265 93.29 315.285 90.77C314.351 88.2033 313.045 86.3133 311.365 85.1C309.685 83.84 307.701 83.21 305.415 83.21C303.221 83.21 301.261 83.84 299.535 85.1C297.855 86.3133 296.525 88.2033 295.545 90.77C294.611 93.29 294.145 96.5333 294.145 100.5C294.145 104.42 294.611 107.663 295.545 110.23C296.525 112.797 297.855 114.71 299.535 115.97C301.261 117.183 303.221 117.79 305.415 117.79Z" fill="black"/>
</svg>
