<svg width="1259" height="200" viewBox="0 0 1259 200" fill="none" xmlns="http://www.w3.org/2000/svg">
<path d="M0 0H1168L1259 100L1168 200H0V0Z" fill="#FDBC00"/>
<path d="M1258.32 100L1168.5 198.708V1.29235L1258.32 100Z" fill="#FDBC00" fill-opacity="0.4" stroke="#FDBC00"/>
<path d="M1064.14 93.7652H1106.89V106.907H1064.14V93.7652ZM1065.37 130.612H1113.89V144H1049.4V58.0235H1112.17V71.4113H1065.37V130.612Z" fill="black"/>
<path d="M27.45 125V118.91L46.91 100.43C48.5433 98.89 49.7567 97.5367 50.55 96.37C51.3433 95.2033 51.8567 94.13 52.09 93.15C52.37 92.1233 52.51 91.1667 52.51 90.28C52.51 88.04 51.74 86.3133 50.2 85.1C48.66 83.84 46.3967 83.21 43.41 83.21C41.03 83.21 38.86 83.63 36.9 84.47C34.9867 85.31 33.33 86.5933 31.93 88.32L25.56 83.42C27.4733 80.8533 30.04 78.87 33.26 77.47C36.5267 76.0233 40.1667 75.3 44.18 75.3C47.7267 75.3 50.8067 75.8833 53.42 77.05C56.08 78.17 58.11 79.78 59.51 81.88C60.9567 83.98 61.68 86.4767 61.68 89.37C61.68 90.9567 61.47 92.5433 61.05 94.13C60.63 95.67 59.8367 97.3033 58.67 99.03C57.5033 100.757 55.8 102.693 53.56 104.84L36.83 120.73L34.94 117.3H63.57V125H27.45ZM84.2222 125.7C80.7689 125.7 77.3855 125.21 74.0722 124.23C70.8055 123.203 68.0522 121.803 65.8122 120.03L69.7322 112.96C71.5055 114.407 73.6522 115.573 76.1722 116.46C78.6922 117.347 81.3289 117.79 84.0822 117.79C87.3489 117.79 89.8922 117.137 91.7122 115.83C93.5322 114.477 94.4422 112.657 94.4422 110.37C94.4422 108.13 93.6022 106.357 91.9222 105.05C90.2422 103.743 87.5355 103.09 83.8022 103.09H79.3222V96.86L93.3222 80.2L94.5122 83.63H68.1922V76H101.582V82.09L87.5822 98.75L82.8222 95.95H85.5522C91.5722 95.95 96.0755 97.3033 99.0622 100.01C102.096 102.67 103.612 106.1 103.612 110.3C103.612 113.053 102.912 115.597 101.512 117.93C100.112 120.263 97.9655 122.153 95.0722 123.6C92.2255 125 88.6089 125.7 84.2222 125.7ZM117.404 125V79.5L121.394 83.63H107.044V76H126.504V125H117.404ZM181.26 125V117.44L180.77 115.83V102.6C180.77 100.033 180 98.05 178.46 96.65C176.92 95.2033 174.587 94.48 171.46 94.48C169.36 94.48 167.284 94.8067 165.23 95.46C163.224 96.1133 161.52 97.0233 160.12 98.19L156.69 91.82C158.697 90.28 161.077 89.1367 163.83 88.39C166.63 87.5967 169.524 87.2 172.51 87.2C177.924 87.2 182.1 88.5067 185.04 91.12C188.027 93.6867 189.52 97.6767 189.52 103.09V125H181.26ZM169.5 125.49C166.7 125.49 164.25 125.023 162.15 124.09C160.05 123.11 158.417 121.78 157.25 120.1C156.13 118.373 155.57 116.437 155.57 114.29C155.57 112.19 156.06 110.3 157.04 108.62C158.067 106.94 159.724 105.61 162.01 104.63C164.297 103.65 167.33 103.16 171.11 103.16H181.96V108.97H171.74C168.754 108.97 166.747 109.46 165.72 110.44C164.694 111.373 164.18 112.54 164.18 113.94C164.18 115.527 164.81 116.787 166.07 117.72C167.33 118.653 169.08 119.12 171.32 119.12C173.467 119.12 175.38 118.63 177.06 117.65C178.787 116.67 180.024 115.223 180.77 113.31L182.24 118.56C181.4 120.753 179.884 122.457 177.69 123.67C175.544 124.883 172.814 125.49 169.5 125.49ZM171.6 82.51L159.42 72.92H169.71L179.16 82.51H171.6ZM232.835 125.7C229.382 125.7 225.999 125.21 222.685 124.23C219.419 123.203 216.665 121.803 214.425 120.03L218.345 112.96C220.119 114.407 222.265 115.573 224.785 116.46C227.305 117.347 229.942 117.79 232.695 117.79C235.962 117.79 238.505 117.137 240.325 115.83C242.145 114.477 243.055 112.657 243.055 110.37C243.055 108.13 242.215 106.357 240.535 105.05C238.855 103.743 236.149 103.09 232.415 103.09H227.935V96.86L241.935 80.2L243.125 83.63H216.805V76H250.195V82.09L236.195 98.75L231.435 95.95H234.165C240.185 95.95 244.689 97.3033 247.675 100.01C250.709 102.67 252.225 106.1 252.225 110.3C252.225 113.053 251.525 115.597 250.125 117.93C248.725 120.263 246.579 122.153 243.685 123.6C240.839 125 237.222 125.7 232.835 125.7ZM273.236 125.7C269.783 125.7 266.399 125.21 263.086 124.23C259.819 123.203 257.066 121.803 254.826 120.03L258.746 112.96C260.519 114.407 262.666 115.573 265.186 116.46C267.706 117.347 270.343 117.79 273.096 117.79C276.363 117.79 278.906 117.137 280.726 115.83C282.546 114.477 283.456 112.657 283.456 110.37C283.456 108.13 282.616 106.357 280.936 105.05C279.256 103.743 276.549 103.09 272.816 103.09H268.336V96.86L282.336 80.2L283.526 83.63H257.206V76H290.596V82.09L276.596 98.75L271.836 95.95H274.566C280.586 95.95 285.089 97.3033 288.076 100.01C291.109 102.67 292.626 106.1 292.626 110.3C292.626 113.053 291.926 115.597 290.526 117.93C289.126 120.263 286.979 122.153 284.086 123.6C281.239 125 277.623 125.7 273.236 125.7ZM319.018 125.7C315.145 125.7 311.645 124.72 308.518 122.76C305.438 120.8 303.011 117.953 301.238 114.22C299.465 110.44 298.578 105.867 298.578 100.5C298.578 95.1333 299.465 90.5833 301.238 86.85C303.011 83.07 305.438 80.2 308.518 78.24C311.645 76.28 315.145 75.3 319.018 75.3C322.938 75.3 326.438 76.28 329.518 78.24C332.598 80.2 335.025 83.07 336.798 86.85C338.618 90.5833 339.528 95.1333 339.528 100.5C339.528 105.867 338.618 110.44 336.798 114.22C335.025 117.953 332.598 120.8 329.518 122.76C326.438 124.72 322.938 125.7 319.018 125.7ZM319.018 117.79C321.305 117.79 323.288 117.183 324.968 115.97C326.648 114.71 327.955 112.797 328.888 110.23C329.868 107.663 330.358 104.42 330.358 100.5C330.358 96.5333 329.868 93.29 328.888 90.77C327.955 88.2033 326.648 86.3133 324.968 85.1C323.288 83.84 321.305 83.21 319.018 83.21C316.825 83.21 314.865 83.84 313.138 85.1C311.458 86.3133 310.128 88.2033 309.148 90.77C308.215 93.29 307.748 96.5333 307.748 100.5C307.748 104.42 308.215 107.663 309.148 110.23C310.128 112.797 311.458 114.71 313.138 115.97C314.865 117.183 316.825 117.79 319.018 117.79Z" fill="black"/>
</svg>
