<svg width="1439" height="200" viewBox="0 0 1439 200" fill="none" xmlns="http://www.w3.org/2000/svg">
<path d="M0 0H1348L1439 101L1348 200H0V0Z" fill="#ED6901"/>
<path d="M1438.32 100L1348.5 198.708V1.29235L1438.32 100Z" fill="#ED6901" fill-opacity="0.4" stroke="#ED6901"/>
<path d="M1246.06 97.5727H1288.92V111.083H1246.06V97.5727ZM1247.41 144H1231.44V58.0235H1294.21V71.4113H1247.41V144Z" fill="black"/>
<path d="M43.48 125.7C40.0267 125.7 36.6433 125.21 33.33 124.23C30.0633 123.203 27.31 121.803 25.07 120.03L28.99 112.96C30.7633 114.407 32.91 115.573 35.43 116.46C37.95 117.347 40.5867 117.79 43.34 117.79C46.6067 117.79 49.15 117.137 50.97 115.83C52.79 114.477 53.7 112.657 53.7 110.37C53.7 108.13 52.86 106.357 51.18 105.05C49.5 103.743 46.7933 103.09 43.06 103.09H38.58V96.86L52.58 80.2L53.77 83.63H27.45V76H60.84V82.09L46.84 98.75L42.08 95.95H44.81C50.83 95.95 55.3333 97.3033 58.32 100.01C61.3533 102.67 62.87 106.1 62.87 110.3C62.87 113.053 62.17 115.597 60.77 117.93C59.37 120.263 57.2233 122.153 54.33 123.6C51.4833 125 47.8667 125.7 43.48 125.7ZM83.8804 125.7C80.4271 125.7 77.0437 125.21 73.7304 124.23C70.4637 123.203 67.7104 121.803 65.4704 120.03L69.3904 112.96C71.1637 114.407 73.3104 115.573 75.8304 116.46C78.3504 117.347 80.9871 117.79 83.7404 117.79C87.0071 117.79 89.5504 117.137 91.3704 115.83C93.1904 114.477 94.1004 112.657 94.1004 110.37C94.1004 108.13 93.2604 106.357 91.5804 105.05C89.9004 103.743 87.1937 103.09 83.4604 103.09H78.9804V96.86L92.9804 80.2L94.1704 83.63H67.8504V76H101.24V82.09L87.2404 98.75L82.4804 95.95H85.2104C91.2304 95.95 95.7337 97.3033 98.7204 100.01C101.754 102.67 103.27 106.1 103.27 110.3C103.27 113.053 102.57 115.597 101.17 117.93C99.7704 120.263 97.6237 122.153 94.7304 123.6C91.8837 125 88.2671 125.7 83.8804 125.7ZM117.063 125V79.5L121.053 83.63H106.703V76H126.163V125H117.063ZM180.918 125V117.44L180.428 115.83V102.6C180.428 100.033 179.658 98.05 178.118 96.65C176.578 95.2033 174.245 94.48 171.118 94.48C169.018 94.48 166.942 94.8067 164.888 95.46C162.882 96.1133 161.178 97.0233 159.778 98.19L156.348 91.82C158.355 90.28 160.735 89.1367 163.488 88.39C166.288 87.5967 169.182 87.2 172.168 87.2C177.582 87.2 181.758 88.5067 184.698 91.12C187.685 93.6867 189.178 97.6767 189.178 103.09V125H180.918ZM169.158 125.49C166.358 125.49 163.908 125.023 161.808 124.09C159.708 123.11 158.075 121.78 156.908 120.1C155.788 118.373 155.228 116.437 155.228 114.29C155.228 112.19 155.718 110.3 156.698 108.62C157.725 106.94 159.382 105.61 161.668 104.63C163.955 103.65 166.988 103.16 170.768 103.16H181.618V108.97H171.398C168.412 108.97 166.405 109.46 165.378 110.44C164.352 111.373 163.838 112.54 163.838 113.94C163.838 115.527 164.468 116.787 165.728 117.72C166.988 118.653 168.738 119.12 170.978 119.12C173.125 119.12 175.038 118.63 176.718 117.65C178.445 116.67 179.682 115.223 180.428 113.31L181.898 118.56C181.058 120.753 179.542 122.457 177.348 123.67C175.202 124.883 172.472 125.49 169.158 125.49ZM171.258 82.51L159.078 72.92H169.368L178.818 82.51H171.258ZM216.394 113.87V107.57L240.544 76H250.274L226.474 107.57L221.924 106.17H260.774V113.87H216.394ZM243.274 125V113.87L243.554 106.17V96.3H252.094V125H243.274ZM280.843 125.7C277.39 125.7 274.007 125.21 270.693 124.23C267.427 123.203 264.673 121.803 262.433 120.03L266.283 112.96C268.057 114.407 270.203 115.573 272.723 116.46C275.29 117.347 277.95 117.79 280.703 117.79C283.923 117.79 286.443 117.113 288.263 115.76C290.13 114.407 291.063 112.587 291.063 110.3C291.063 108.76 290.667 107.407 289.873 106.24C289.127 105.073 287.773 104.187 285.813 103.58C283.9 102.973 281.263 102.67 277.903 102.67H266.073L268.593 76H297.363V83.63H271.953L276.713 79.29L274.823 99.24L270.063 94.97H279.933C284.787 94.97 288.683 95.6233 291.623 96.93C294.61 98.19 296.78 99.9633 298.133 102.25C299.533 104.49 300.233 107.057 300.233 109.95C300.233 112.797 299.533 115.41 298.133 117.79C296.733 120.17 294.587 122.083 291.693 123.53C288.847 124.977 285.23 125.7 280.843 125.7ZM325.922 125.7C322.049 125.7 318.549 124.72 315.422 122.76C312.342 120.8 309.916 117.953 308.142 114.22C306.369 110.44 305.482 105.867 305.482 100.5C305.482 95.1333 306.369 90.5833 308.142 86.85C309.916 83.07 312.342 80.2 315.422 78.24C318.549 76.28 322.049 75.3 325.922 75.3C329.842 75.3 333.342 76.28 336.422 78.24C339.502 80.2 341.929 83.07 343.702 86.85C345.522 90.5833 346.432 95.1333 346.432 100.5C346.432 105.867 345.522 110.44 343.702 114.22C341.929 117.953 339.502 120.8 336.422 122.76C333.342 124.72 329.842 125.7 325.922 125.7ZM325.922 117.79C328.209 117.79 330.192 117.183 331.872 115.97C333.552 114.71 334.859 112.797 335.792 110.23C336.772 107.663 337.262 104.42 337.262 100.5C337.262 96.5333 336.772 93.29 335.792 90.77C334.859 88.2033 333.552 86.3133 331.872 85.1C330.192 83.84 328.209 83.21 325.922 83.21C323.729 83.21 321.769 83.84 320.042 85.1C318.362 86.3133 317.032 88.2033 316.052 90.77C315.119 93.29 314.652 96.5333 314.652 100.5C314.652 104.42 315.119 107.663 316.052 110.23C317.032 112.797 318.362 114.71 320.042 115.97C321.769 117.183 323.729 117.79 325.922 117.79Z" fill="black"/>
</svg>
