<svg width="1620" height="200" viewBox="0 0 1620 200" fill="none" xmlns="http://www.w3.org/2000/svg">
<path d="M0 0H1528L1620 99L1528 200H0V0Z" fill="#E60005"/>
<path d="M1618.32 100L1528.5 198.708V1.29235L1618.32 100Z" fill="#E60005" fill-opacity="0.4" stroke="#E60005"/>
<path d="M1443.27 145.228C1436.56 145.228 1430.37 144.164 1424.72 142.035C1419.16 139.824 1414.28 136.753 1410.11 132.823C1405.93 128.811 1402.7 124.103 1400.41 118.698C1398.11 113.294 1396.97 107.399 1396.97 101.012C1396.97 94.6249 1398.11 88.7294 1400.41 83.3252C1402.7 77.9209 1405.93 73.2536 1410.11 69.3233C1414.37 65.3111 1419.32 62.2405 1424.97 60.1115C1430.62 57.9007 1436.8 56.7953 1443.52 56.7953C1450.8 56.7953 1457.35 57.9826 1463.17 60.3572C1469.06 62.7318 1474.02 66.2118 1478.03 70.7972L1467.96 80.6231C1464.6 77.2659 1460.96 74.8094 1457.03 73.2536C1453.18 71.616 1448.92 70.7972 1444.25 70.7972C1439.75 70.7972 1435.57 71.5341 1431.73 73.008C1427.88 74.4819 1424.56 76.5699 1421.78 79.272C1418.99 81.9741 1416.82 85.1675 1415.27 88.8522C1413.79 92.5369 1413.06 96.5901 1413.06 101.012C1413.06 105.352 1413.79 109.364 1415.27 113.048C1416.82 116.733 1418.99 119.968 1421.78 122.752C1424.56 125.454 1427.84 127.542 1431.6 129.016C1435.37 130.489 1439.54 131.226 1444.13 131.226C1448.39 131.226 1452.48 130.571 1456.41 129.261C1460.42 127.869 1464.23 125.576 1467.84 122.383L1476.92 134.297C1472.42 137.9 1467.18 140.643 1461.2 142.526C1455.31 144.328 1449.33 145.228 1443.27 145.228ZM1461.82 132.209V100.029H1476.92V134.297L1461.82 132.209Z" fill="white"/>
<path d="M29.55 116.81V109.53L59.09 98.47V102.53L29.55 91.47V84.19L61.82 96.72V104.28L29.55 116.81ZM88.0148 113.87V107.57L112.165 76H121.895L98.0948 107.57L93.5448 106.17H132.395V113.87H88.0148ZM114.895 125V113.87L115.175 106.17V96.3H123.715V125H114.895ZM152.465 125.7C149.011 125.7 145.628 125.21 142.315 124.23C139.048 123.203 136.295 121.803 134.055 120.03L137.905 112.96C139.678 114.407 141.825 115.573 144.345 116.46C146.911 117.347 149.571 117.79 152.325 117.79C155.545 117.79 158.065 117.113 159.885 115.76C161.751 114.407 162.685 112.587 162.685 110.3C162.685 108.76 162.288 107.407 161.495 106.24C160.748 105.073 159.395 104.187 157.435 103.58C155.521 102.973 152.885 102.67 149.525 102.67H137.695L140.215 76H168.985V83.63H143.575L148.335 79.29L146.445 99.24L141.685 94.97H151.555C156.408 94.97 160.305 95.6233 163.245 96.93C166.231 98.19 168.401 99.9633 169.755 102.25C171.155 104.49 171.855 107.057 171.855 109.95C171.855 112.797 171.155 115.41 169.755 117.79C168.355 120.17 166.208 122.083 163.315 123.53C160.468 124.977 156.851 125.7 152.465 125.7ZM197.543 125.7C193.67 125.7 190.17 124.72 187.043 122.76C183.963 120.8 181.537 117.953 179.763 114.22C177.99 110.44 177.103 105.867 177.103 100.5C177.103 95.1333 177.99 90.5833 179.763 86.85C181.537 83.07 183.963 80.2 187.043 78.24C190.17 76.28 193.67 75.3 197.543 75.3C201.463 75.3 204.963 76.28 208.043 78.24C211.123 80.2 213.55 83.07 215.323 86.85C217.143 90.5833 218.053 95.1333 218.053 100.5C218.053 105.867 217.143 110.44 215.323 114.22C213.55 117.953 211.123 120.8 208.043 122.76C204.963 124.72 201.463 125.7 197.543 125.7ZM197.543 117.79C199.83 117.79 201.813 117.183 203.493 115.97C205.173 114.71 206.48 112.797 207.413 110.23C208.393 107.663 208.883 104.42 208.883 100.5C208.883 96.5333 208.393 93.29 207.413 90.77C206.48 88.2033 205.173 86.3133 203.493 85.1C201.813 83.84 199.83 83.21 197.543 83.21C195.35 83.21 193.39 83.84 191.663 85.1C189.983 86.3133 188.653 88.2033 187.673 90.77C186.74 93.29 186.273 96.5333 186.273 100.5C186.273 104.42 186.74 107.663 187.673 110.23C188.653 112.797 189.983 114.71 191.663 115.97C193.39 117.183 195.35 117.79 197.543 117.79Z" fill="black"/>
</svg>
